<mxfile host="app.diagrams.net" agent="Mozilla/5.0 (Windows NT 10.0; Win64; x64; rv:131.0) Gecko/20100101 Firefox/131.0" version="24.7.16">
  <diagram name="Page-1" id="EnuZD9dbVlelB6RlQocP">
    <mxGraphModel dx="2074" dy="2283" grid="1" gridSize="10" guides="1" tooltips="1" connect="1" arrows="1" fold="1" page="1" pageScale="1" pageWidth="827" pageHeight="1169" math="0" shadow="0">
      <root>
        <mxCell id="0" />
        <mxCell id="1" parent="0" />
        <mxCell id="aMmDziVB-nuVyi003y2U-98" value="" style="group" vertex="1" connectable="0" parent="1">
          <mxGeometry x="750" y="170" width="870" height="360" as="geometry" />
        </mxCell>
        <mxCell id="aMmDziVB-nuVyi003y2U-15" value="" style="rounded=0;whiteSpace=wrap;html=1;dashed=1;" vertex="1" parent="aMmDziVB-nuVyi003y2U-98">
          <mxGeometry width="870" height="360" as="geometry" />
        </mxCell>
        <mxCell id="aMmDziVB-nuVyi003y2U-16" value="ADD CREDENTIAL" style="text;html=1;align=center;verticalAlign=middle;whiteSpace=wrap;rounded=0;" vertex="1" parent="aMmDziVB-nuVyi003y2U-98">
          <mxGeometry x="364" y="10" width="176" height="30" as="geometry" />
        </mxCell>
        <mxCell id="aMmDziVB-nuVyi003y2U-17" value="Reconstruct PRK" style="rounded=1;whiteSpace=wrap;html=1;fillColor=#d5e8d4;strokeColor=#82b366;" vertex="1" parent="aMmDziVB-nuVyi003y2U-98">
          <mxGeometry x="30" y="100" width="120" height="60" as="geometry" />
        </mxCell>
        <mxCell id="aMmDziVB-nuVyi003y2U-19" value="&lt;div&gt;Obtain external credential and&amp;nbsp;&lt;/div&gt;&lt;div&gt;ID/URL&lt;/div&gt;" style="rounded=1;whiteSpace=wrap;html=1;fillColor=#ffe6cc;strokeColor=#d79b00;" vertex="1" parent="aMmDziVB-nuVyi003y2U-98">
          <mxGeometry x="30" y="270" width="120" height="60" as="geometry" />
        </mxCell>
        <mxCell id="aMmDziVB-nuVyi003y2U-21" value="Decrypt MP" style="rounded=1;whiteSpace=wrap;html=1;fillColor=#dae8fc;strokeColor=#6c8ebf;" vertex="1" parent="aMmDziVB-nuVyi003y2U-98">
          <mxGeometry x="210" y="135" width="120" height="60" as="geometry" />
        </mxCell>
        <mxCell id="aMmDziVB-nuVyi003y2U-24" value="Encrypt external credential with MP" style="rounded=1;whiteSpace=wrap;html=1;fillColor=#dae8fc;strokeColor=#6c8ebf;" vertex="1" parent="aMmDziVB-nuVyi003y2U-98">
          <mxGeometry x="380" y="190" width="120" height="60" as="geometry" />
        </mxCell>
        <mxCell id="aMmDziVB-nuVyi003y2U-27" value="Hash ID/URL" style="rounded=1;whiteSpace=wrap;html=1;fillColor=#e1d5e7;strokeColor=#9673a6;" vertex="1" parent="aMmDziVB-nuVyi003y2U-98">
          <mxGeometry x="288" y="270" width="120" height="60" as="geometry" />
        </mxCell>
        <mxCell id="aMmDziVB-nuVyi003y2U-29" value="Store hash+encrypted credential in credential file " style="rounded=1;whiteSpace=wrap;html=1;fillColor=#d5e8d4;strokeColor=#82b366;" vertex="1" parent="aMmDziVB-nuVyi003y2U-98">
          <mxGeometry x="540" y="270" width="120" height="60" as="geometry" />
        </mxCell>
        <mxCell id="aMmDziVB-nuVyi003y2U-36" value="Store encrypted credential in a map using the hash" style="rounded=1;whiteSpace=wrap;html=1;fillColor=#d5e8d4;strokeColor=#82b366;" vertex="1" parent="aMmDziVB-nuVyi003y2U-98">
          <mxGeometry x="590" y="120" width="120" height="60" as="geometry" />
        </mxCell>
        <mxCell id="aMmDziVB-nuVyi003y2U-41" value="&lt;div&gt;Destroy PRK&amp;nbsp;&lt;/div&gt;&lt;div&gt;memory&lt;/div&gt;" style="rounded=1;whiteSpace=wrap;html=1;fillColor=#f8cecc;strokeColor=#b85450;" vertex="1" parent="aMmDziVB-nuVyi003y2U-98">
          <mxGeometry x="730" y="70" width="120" height="60" as="geometry" />
        </mxCell>
        <mxCell id="aMmDziVB-nuVyi003y2U-43" value="&lt;div&gt;Destory MP&amp;nbsp;&lt;/div&gt;&lt;div&gt;memory&lt;/div&gt;" style="rounded=1;whiteSpace=wrap;html=1;fillColor=#f8cecc;strokeColor=#b85450;" vertex="1" parent="aMmDziVB-nuVyi003y2U-98">
          <mxGeometry x="730" y="190" width="120" height="60" as="geometry" />
        </mxCell>
        <mxCell id="aMmDziVB-nuVyi003y2U-23" style="edgeStyle=orthogonalEdgeStyle;rounded=0;orthogonalLoop=1;jettySize=auto;html=1;exitX=1;exitY=0.75;exitDx=0;exitDy=0;entryX=0;entryY=0.25;entryDx=0;entryDy=0;" edge="1" parent="aMmDziVB-nuVyi003y2U-98" source="aMmDziVB-nuVyi003y2U-17" target="aMmDziVB-nuVyi003y2U-21">
          <mxGeometry relative="1" as="geometry" />
        </mxCell>
        <mxCell id="aMmDziVB-nuVyi003y2U-25" style="edgeStyle=orthogonalEdgeStyle;rounded=0;orthogonalLoop=1;jettySize=auto;html=1;exitX=1;exitY=0.75;exitDx=0;exitDy=0;entryX=0;entryY=0.25;entryDx=0;entryDy=0;" edge="1" parent="aMmDziVB-nuVyi003y2U-98" source="aMmDziVB-nuVyi003y2U-21" target="aMmDziVB-nuVyi003y2U-24">
          <mxGeometry relative="1" as="geometry" />
        </mxCell>
        <mxCell id="aMmDziVB-nuVyi003y2U-26" style="edgeStyle=orthogonalEdgeStyle;rounded=0;orthogonalLoop=1;jettySize=auto;html=1;exitX=1;exitY=0.25;exitDx=0;exitDy=0;entryX=0;entryY=0.75;entryDx=0;entryDy=0;" edge="1" parent="aMmDziVB-nuVyi003y2U-98" source="aMmDziVB-nuVyi003y2U-19" target="aMmDziVB-nuVyi003y2U-24">
          <mxGeometry relative="1" as="geometry" />
        </mxCell>
        <mxCell id="aMmDziVB-nuVyi003y2U-28" style="edgeStyle=orthogonalEdgeStyle;rounded=0;orthogonalLoop=1;jettySize=auto;html=1;exitX=1;exitY=0.75;exitDx=0;exitDy=0;entryX=0;entryY=0.75;entryDx=0;entryDy=0;" edge="1" parent="aMmDziVB-nuVyi003y2U-98" source="aMmDziVB-nuVyi003y2U-19" target="aMmDziVB-nuVyi003y2U-27">
          <mxGeometry relative="1" as="geometry" />
        </mxCell>
        <mxCell id="aMmDziVB-nuVyi003y2U-30" style="edgeStyle=orthogonalEdgeStyle;rounded=0;orthogonalLoop=1;jettySize=auto;html=1;exitX=1;exitY=0.75;exitDx=0;exitDy=0;entryX=0;entryY=0.25;entryDx=0;entryDy=0;" edge="1" parent="aMmDziVB-nuVyi003y2U-98" source="aMmDziVB-nuVyi003y2U-24" target="aMmDziVB-nuVyi003y2U-29">
          <mxGeometry relative="1" as="geometry" />
        </mxCell>
        <mxCell id="aMmDziVB-nuVyi003y2U-31" style="edgeStyle=orthogonalEdgeStyle;rounded=0;orthogonalLoop=1;jettySize=auto;html=1;exitX=1;exitY=0.75;exitDx=0;exitDy=0;entryX=0;entryY=0.75;entryDx=0;entryDy=0;" edge="1" parent="aMmDziVB-nuVyi003y2U-98" source="aMmDziVB-nuVyi003y2U-27" target="aMmDziVB-nuVyi003y2U-29">
          <mxGeometry relative="1" as="geometry" />
        </mxCell>
        <mxCell id="aMmDziVB-nuVyi003y2U-37" style="edgeStyle=orthogonalEdgeStyle;rounded=0;orthogonalLoop=1;jettySize=auto;html=1;exitX=1;exitY=0.25;exitDx=0;exitDy=0;entryX=0;entryY=0.75;entryDx=0;entryDy=0;" edge="1" parent="aMmDziVB-nuVyi003y2U-98" source="aMmDziVB-nuVyi003y2U-27" target="aMmDziVB-nuVyi003y2U-36">
          <mxGeometry relative="1" as="geometry">
            <Array as="points">
              <mxPoint x="510" y="285" />
              <mxPoint x="510" y="165" />
            </Array>
          </mxGeometry>
        </mxCell>
        <mxCell id="aMmDziVB-nuVyi003y2U-44" style="edgeStyle=orthogonalEdgeStyle;rounded=0;orthogonalLoop=1;jettySize=auto;html=1;exitX=1;exitY=0.25;exitDx=0;exitDy=0;entryX=0;entryY=0.25;entryDx=0;entryDy=0;" edge="1" parent="aMmDziVB-nuVyi003y2U-98" source="aMmDziVB-nuVyi003y2U-24" target="aMmDziVB-nuVyi003y2U-43">
          <mxGeometry relative="1" as="geometry" />
        </mxCell>
        <mxCell id="aMmDziVB-nuVyi003y2U-71" value="" style="rounded=0;whiteSpace=wrap;html=1;dashed=1;" vertex="1" parent="1">
          <mxGeometry x="20" y="530" width="930" height="360" as="geometry" />
        </mxCell>
        <mxCell id="aMmDziVB-nuVyi003y2U-45" value="" style="rounded=0;whiteSpace=wrap;html=1;dashed=1;" vertex="1" parent="1">
          <mxGeometry x="570" y="-190" width="700" height="360" as="geometry" />
        </mxCell>
        <mxCell id="aMmDziVB-nuVyi003y2U-14" value="" style="rounded=0;whiteSpace=wrap;html=1;dashed=1;" vertex="1" parent="1">
          <mxGeometry x="20" y="170" width="730" height="360" as="geometry" />
        </mxCell>
        <mxCell id="aMmDziVB-nuVyi003y2U-75" style="edgeStyle=orthogonalEdgeStyle;rounded=0;orthogonalLoop=1;jettySize=auto;html=1;exitX=0.75;exitY=1;exitDx=0;exitDy=0;entryX=0.5;entryY=0;entryDx=0;entryDy=0;" edge="1" parent="1" source="aMmDziVB-nuVyi003y2U-1" target="aMmDziVB-nuVyi003y2U-74">
          <mxGeometry relative="1" as="geometry" />
        </mxCell>
        <mxCell id="aMmDziVB-nuVyi003y2U-87" style="edgeStyle=orthogonalEdgeStyle;rounded=0;orthogonalLoop=1;jettySize=auto;html=1;exitX=1;exitY=0.25;exitDx=0;exitDy=0;entryX=0;entryY=0.75;entryDx=0;entryDy=0;" edge="1" parent="1" source="aMmDziVB-nuVyi003y2U-1" target="aMmDziVB-nuVyi003y2U-7">
          <mxGeometry relative="1" as="geometry" />
        </mxCell>
        <mxCell id="aMmDziVB-nuVyi003y2U-100" style="edgeStyle=orthogonalEdgeStyle;rounded=0;orthogonalLoop=1;jettySize=auto;html=1;exitX=1;exitY=0.75;exitDx=0;exitDy=0;entryX=0;entryY=0.75;entryDx=0;entryDy=0;" edge="1" parent="1" source="aMmDziVB-nuVyi003y2U-1" target="aMmDziVB-nuVyi003y2U-97">
          <mxGeometry relative="1" as="geometry" />
        </mxCell>
        <mxCell id="aMmDziVB-nuVyi003y2U-1" value="Fetch Master password (MP) from windows manager" style="rounded=1;whiteSpace=wrap;html=1;fillColor=#ffe6cc;strokeColor=#d79b00;" vertex="1" parent="1">
          <mxGeometry x="40" y="420" width="120" height="60" as="geometry" />
        </mxCell>
        <mxCell id="aMmDziVB-nuVyi003y2U-6" style="edgeStyle=orthogonalEdgeStyle;rounded=0;orthogonalLoop=1;jettySize=auto;html=1;exitX=1;exitY=0.5;exitDx=0;exitDy=0;entryX=0;entryY=0.25;entryDx=0;entryDy=0;" edge="1" parent="1" source="aMmDziVB-nuVyi003y2U-2" target="aMmDziVB-nuVyi003y2U-4">
          <mxGeometry relative="1" as="geometry" />
        </mxCell>
        <mxCell id="aMmDziVB-nuVyi003y2U-2" value="Grab HWID from system as IV" style="rounded=1;whiteSpace=wrap;html=1;fillColor=#d5e8d4;strokeColor=#82b366;" vertex="1" parent="1">
          <mxGeometry x="40" y="220" width="120" height="60" as="geometry" />
        </mxCell>
        <mxCell id="aMmDziVB-nuVyi003y2U-5" style="edgeStyle=orthogonalEdgeStyle;rounded=0;orthogonalLoop=1;jettySize=auto;html=1;exitX=1;exitY=0.5;exitDx=0;exitDy=0;entryX=0;entryY=0.75;entryDx=0;entryDy=0;" edge="1" parent="1" source="aMmDziVB-nuVyi003y2U-3" target="aMmDziVB-nuVyi003y2U-4">
          <mxGeometry relative="1" as="geometry" />
        </mxCell>
        <mxCell id="aMmDziVB-nuVyi003y2U-3" value="Generate IV" style="rounded=1;whiteSpace=wrap;html=1;fillColor=#d5e8d4;strokeColor=#82b366;" vertex="1" parent="1">
          <mxGeometry x="40" y="320" width="120" height="60" as="geometry" />
        </mxCell>
        <mxCell id="aMmDziVB-nuVyi003y2U-11" style="edgeStyle=orthogonalEdgeStyle;rounded=0;orthogonalLoop=1;jettySize=auto;html=1;exitX=1;exitY=0.25;exitDx=0;exitDy=0;entryX=0;entryY=0.25;entryDx=0;entryDy=0;" edge="1" parent="1" source="aMmDziVB-nuVyi003y2U-4" target="aMmDziVB-nuVyi003y2U-10">
          <mxGeometry relative="1" as="geometry" />
        </mxCell>
        <mxCell id="aMmDziVB-nuVyi003y2U-82" style="edgeStyle=orthogonalEdgeStyle;rounded=0;orthogonalLoop=1;jettySize=auto;html=1;exitX=1;exitY=0.75;exitDx=0;exitDy=0;entryX=0.5;entryY=0;entryDx=0;entryDy=0;" edge="1" parent="1" source="aMmDziVB-nuVyi003y2U-4" target="aMmDziVB-nuVyi003y2U-74">
          <mxGeometry relative="1" as="geometry" />
        </mxCell>
        <mxCell id="aMmDziVB-nuVyi003y2U-86" style="edgeStyle=orthogonalEdgeStyle;rounded=0;orthogonalLoop=1;jettySize=auto;html=1;exitX=1;exitY=0.75;exitDx=0;exitDy=0;entryX=0;entryY=0.25;entryDx=0;entryDy=0;" edge="1" parent="1" source="aMmDziVB-nuVyi003y2U-4" target="aMmDziVB-nuVyi003y2U-7">
          <mxGeometry relative="1" as="geometry" />
        </mxCell>
        <mxCell id="aMmDziVB-nuVyi003y2U-4" value="Generate Per-Run Key (PRK) using KDA" style="rounded=1;whiteSpace=wrap;html=1;fillColor=#dae8fc;strokeColor=#6c8ebf;" vertex="1" parent="1">
          <mxGeometry x="240" y="270" width="120" height="60" as="geometry" />
        </mxCell>
        <mxCell id="aMmDziVB-nuVyi003y2U-22" style="edgeStyle=orthogonalEdgeStyle;rounded=0;orthogonalLoop=1;jettySize=auto;html=1;exitX=1;exitY=0.25;exitDx=0;exitDy=0;entryX=0;entryY=0.75;entryDx=0;entryDy=0;" edge="1" parent="1" source="aMmDziVB-nuVyi003y2U-7" target="aMmDziVB-nuVyi003y2U-21">
          <mxGeometry relative="1" as="geometry">
            <Array as="points">
              <mxPoint x="780" y="378" />
              <mxPoint x="780" y="350" />
            </Array>
          </mxGeometry>
        </mxCell>
        <mxCell id="aMmDziVB-nuVyi003y2U-7" value="Encrypt MP with PRK for storage in memory" style="rounded=1;whiteSpace=wrap;html=1;fillColor=#dae8fc;strokeColor=#6c8ebf;" vertex="1" parent="1">
          <mxGeometry x="414" y="360" width="136" height="70" as="geometry" />
        </mxCell>
        <mxCell id="aMmDziVB-nuVyi003y2U-18" style="edgeStyle=orthogonalEdgeStyle;rounded=0;orthogonalLoop=1;jettySize=auto;html=1;exitX=1;exitY=0.25;exitDx=0;exitDy=0;entryX=0;entryY=0.25;entryDx=0;entryDy=0;" edge="1" parent="1" source="aMmDziVB-nuVyi003y2U-10" target="aMmDziVB-nuVyi003y2U-17">
          <mxGeometry relative="1" as="geometry" />
        </mxCell>
        <mxCell id="aMmDziVB-nuVyi003y2U-58" style="edgeStyle=orthogonalEdgeStyle;rounded=0;orthogonalLoop=1;jettySize=auto;html=1;exitX=0.5;exitY=0;exitDx=0;exitDy=0;entryX=0;entryY=0.5;entryDx=0;entryDy=0;" edge="1" parent="1" source="aMmDziVB-nuVyi003y2U-10" target="aMmDziVB-nuVyi003y2U-48">
          <mxGeometry relative="1" as="geometry" />
        </mxCell>
        <mxCell id="aMmDziVB-nuVyi003y2U-99" style="edgeStyle=orthogonalEdgeStyle;rounded=0;orthogonalLoop=1;jettySize=auto;html=1;exitX=0.75;exitY=1;exitDx=0;exitDy=0;entryX=0.25;entryY=0;entryDx=0;entryDy=0;" edge="1" parent="1" source="aMmDziVB-nuVyi003y2U-10" target="aMmDziVB-nuVyi003y2U-97">
          <mxGeometry relative="1" as="geometry" />
        </mxCell>
        <mxCell id="aMmDziVB-nuVyi003y2U-10" value="Break PRK into multiple segements in memory" style="rounded=1;whiteSpace=wrap;html=1;fillColor=#d5e8d4;strokeColor=#82b366;" vertex="1" parent="1">
          <mxGeometry x="540" y="270" width="120" height="60" as="geometry" />
        </mxCell>
        <mxCell id="aMmDziVB-nuVyi003y2U-12" value="FIRST START" style="text;html=1;align=center;verticalAlign=middle;whiteSpace=wrap;rounded=0;" vertex="1" parent="1">
          <mxGeometry x="270" y="180" width="176" height="30" as="geometry" />
        </mxCell>
        <mxCell id="aMmDziVB-nuVyi003y2U-34" style="edgeStyle=orthogonalEdgeStyle;rounded=0;orthogonalLoop=1;jettySize=auto;html=1;exitX=1;exitY=0.25;exitDx=0;exitDy=0;entryX=0;entryY=0.25;entryDx=0;entryDy=0;" edge="1" parent="1" source="aMmDziVB-nuVyi003y2U-17" target="aMmDziVB-nuVyi003y2U-33">
          <mxGeometry relative="1" as="geometry" />
        </mxCell>
        <mxCell id="aMmDziVB-nuVyi003y2U-35" style="edgeStyle=orthogonalEdgeStyle;rounded=0;orthogonalLoop=1;jettySize=auto;html=1;exitX=0.75;exitY=0;exitDx=0;exitDy=0;entryX=0;entryY=0.75;entryDx=0;entryDy=0;" edge="1" parent="1" source="aMmDziVB-nuVyi003y2U-19">
          <mxGeometry relative="1" as="geometry">
            <mxPoint x="810" y="435" as="sourcePoint" />
            <mxPoint x="1080" y="280" as="targetPoint" />
            <Array as="points">
              <mxPoint x="870" y="385" />
              <mxPoint x="910" y="385" />
              <mxPoint x="910" y="295" />
              <mxPoint x="1010" y="295" />
              <mxPoint x="1010" y="280" />
            </Array>
          </mxGeometry>
        </mxCell>
        <mxCell id="aMmDziVB-nuVyi003y2U-38" style="edgeStyle=orthogonalEdgeStyle;rounded=0;orthogonalLoop=1;jettySize=auto;html=1;exitX=1;exitY=0.75;exitDx=0;exitDy=0;entryX=0;entryY=0.25;entryDx=0;entryDy=0;" edge="1" parent="1" source="aMmDziVB-nuVyi003y2U-33" target="aMmDziVB-nuVyi003y2U-36">
          <mxGeometry relative="1" as="geometry" />
        </mxCell>
        <mxCell id="aMmDziVB-nuVyi003y2U-42" style="edgeStyle=orthogonalEdgeStyle;rounded=0;orthogonalLoop=1;jettySize=auto;html=1;exitX=1;exitY=0.25;exitDx=0;exitDy=0;entryX=0;entryY=0.25;entryDx=0;entryDy=0;" edge="1" parent="1" source="aMmDziVB-nuVyi003y2U-33" target="aMmDziVB-nuVyi003y2U-41">
          <mxGeometry relative="1" as="geometry" />
        </mxCell>
        <mxCell id="aMmDziVB-nuVyi003y2U-33" value="Encrypt external credential using PRK" style="rounded=1;whiteSpace=wrap;html=1;fillColor=#dae8fc;strokeColor=#6c8ebf;" vertex="1" parent="1">
          <mxGeometry x="1080" y="240" width="120" height="60" as="geometry" />
        </mxCell>
        <mxCell id="aMmDziVB-nuVyi003y2U-46" value="USE CREDENTIAL" style="text;html=1;align=center;verticalAlign=middle;whiteSpace=wrap;rounded=0;" vertex="1" parent="1">
          <mxGeometry x="840" y="-170" width="176" height="30" as="geometry" />
        </mxCell>
        <mxCell id="aMmDziVB-nuVyi003y2U-55" style="edgeStyle=orthogonalEdgeStyle;rounded=0;orthogonalLoop=1;jettySize=auto;html=1;exitX=1;exitY=0.5;exitDx=0;exitDy=0;entryX=0;entryY=0.5;entryDx=0;entryDy=0;" edge="1" parent="1" source="aMmDziVB-nuVyi003y2U-48" target="aMmDziVB-nuVyi003y2U-53">
          <mxGeometry relative="1" as="geometry" />
        </mxCell>
        <mxCell id="aMmDziVB-nuVyi003y2U-48" value="Reconstruct PRK" style="rounded=1;whiteSpace=wrap;html=1;fillColor=#d5e8d4;strokeColor=#82b366;" vertex="1" parent="1">
          <mxGeometry x="720" y="-70" width="120" height="60" as="geometry" />
        </mxCell>
        <mxCell id="aMmDziVB-nuVyi003y2U-52" style="edgeStyle=orthogonalEdgeStyle;rounded=0;orthogonalLoop=1;jettySize=auto;html=1;exitX=1;exitY=0.5;exitDx=0;exitDy=0;entryX=0;entryY=0.5;entryDx=0;entryDy=0;" edge="1" parent="1" source="aMmDziVB-nuVyi003y2U-50" target="aMmDziVB-nuVyi003y2U-51">
          <mxGeometry relative="1" as="geometry" />
        </mxCell>
        <mxCell id="aMmDziVB-nuVyi003y2U-50" value="Hash credential ID" style="rounded=1;whiteSpace=wrap;html=1;fillColor=#e1d5e7;strokeColor=#9673a6;" vertex="1" parent="1">
          <mxGeometry x="770" y="40" width="120" height="60" as="geometry" />
        </mxCell>
        <mxCell id="aMmDziVB-nuVyi003y2U-54" style="edgeStyle=orthogonalEdgeStyle;rounded=0;orthogonalLoop=1;jettySize=auto;html=1;exitX=0.5;exitY=0;exitDx=0;exitDy=0;entryX=0.5;entryY=1;entryDx=0;entryDy=0;" edge="1" parent="1" source="aMmDziVB-nuVyi003y2U-51" target="aMmDziVB-nuVyi003y2U-53">
          <mxGeometry relative="1" as="geometry" />
        </mxCell>
        <mxCell id="aMmDziVB-nuVyi003y2U-51" value="Get encrypted credential from the map" style="rounded=1;whiteSpace=wrap;html=1;fillColor=#d5e8d4;strokeColor=#82b366;" vertex="1" parent="1">
          <mxGeometry x="920" y="40" width="120" height="60" as="geometry" />
        </mxCell>
        <mxCell id="aMmDziVB-nuVyi003y2U-57" style="edgeStyle=orthogonalEdgeStyle;rounded=0;orthogonalLoop=1;jettySize=auto;html=1;exitX=1;exitY=0.5;exitDx=0;exitDy=0;entryX=0;entryY=0.5;entryDx=0;entryDy=0;" edge="1" parent="1" source="aMmDziVB-nuVyi003y2U-53" target="aMmDziVB-nuVyi003y2U-56">
          <mxGeometry relative="1" as="geometry" />
        </mxCell>
        <mxCell id="aMmDziVB-nuVyi003y2U-53" value="Decrypt credential" style="rounded=1;whiteSpace=wrap;html=1;fillColor=#dae8fc;strokeColor=#6c8ebf;" vertex="1" parent="1">
          <mxGeometry x="920" y="-70" width="120" height="60" as="geometry" />
        </mxCell>
        <mxCell id="aMmDziVB-nuVyi003y2U-56" value="Destroy PRK and credential memory" style="rounded=1;whiteSpace=wrap;html=1;fillColor=#f8cecc;strokeColor=#b85450;" vertex="1" parent="1">
          <mxGeometry x="1110" y="-70" width="120" height="60" as="geometry" />
        </mxCell>
        <mxCell id="aMmDziVB-nuVyi003y2U-63" style="edgeStyle=orthogonalEdgeStyle;rounded=0;orthogonalLoop=1;jettySize=auto;html=1;exitX=1;exitY=0.5;exitDx=0;exitDy=0;entryX=0;entryY=0.5;entryDx=0;entryDy=0;" edge="1" parent="1" source="aMmDziVB-nuVyi003y2U-62" target="aMmDziVB-nuVyi003y2U-50">
          <mxGeometry relative="1" as="geometry" />
        </mxCell>
        <mxCell id="aMmDziVB-nuVyi003y2U-62" value="Obtain credential ID" style="rounded=1;whiteSpace=wrap;html=1;fillColor=#ffe6cc;strokeColor=#d79b00;" vertex="1" parent="1">
          <mxGeometry x="620" y="40" width="120" height="60" as="geometry" />
        </mxCell>
        <mxCell id="aMmDziVB-nuVyi003y2U-64" value="" style="rounded=0;whiteSpace=wrap;html=1;dashed=1;" vertex="1" parent="1">
          <mxGeometry x="1270" y="-190" width="350" height="360" as="geometry" />
        </mxCell>
        <mxCell id="aMmDziVB-nuVyi003y2U-65" value="KEY" style="text;html=1;align=center;verticalAlign=middle;whiteSpace=wrap;rounded=0;" vertex="1" parent="1">
          <mxGeometry x="1327" y="-170" width="176" height="30" as="geometry" />
        </mxCell>
        <mxCell id="aMmDziVB-nuVyi003y2U-66" value="Destroy data" style="rounded=1;whiteSpace=wrap;html=1;fillColor=#f8cecc;strokeColor=#b85450;" vertex="1" parent="1">
          <mxGeometry x="1420" y="-50" width="120" height="60" as="geometry" />
        </mxCell>
        <mxCell id="aMmDziVB-nuVyi003y2U-67" value="Cryptographical function" style="rounded=1;whiteSpace=wrap;html=1;fillColor=#dae8fc;strokeColor=#6c8ebf;" vertex="1" parent="1">
          <mxGeometry x="1290" y="-50" width="120" height="60" as="geometry" />
        </mxCell>
        <mxCell id="aMmDziVB-nuVyi003y2U-68" value="External value" style="rounded=1;whiteSpace=wrap;html=1;fillColor=#ffe6cc;strokeColor=#d79b00;" vertex="1" parent="1">
          <mxGeometry x="1420" y="-120" width="120" height="60" as="geometry" />
        </mxCell>
        <mxCell id="aMmDziVB-nuVyi003y2U-69" value="Create variable/data" style="rounded=1;whiteSpace=wrap;html=1;fillColor=#d5e8d4;strokeColor=#82b366;" vertex="1" parent="1">
          <mxGeometry x="1290" y="-120" width="120" height="60" as="geometry" />
        </mxCell>
        <mxCell id="aMmDziVB-nuVyi003y2U-70" value="Hash function" style="rounded=1;whiteSpace=wrap;html=1;fillColor=#e1d5e7;strokeColor=#9673a6;" vertex="1" parent="1">
          <mxGeometry x="1290" y="20" width="120" height="60" as="geometry" />
        </mxCell>
        <mxCell id="aMmDziVB-nuVyi003y2U-72" value="&lt;div&gt;LOAD EXISTING CREDENTIALS&lt;/div&gt;" style="text;html=1;align=center;verticalAlign=middle;whiteSpace=wrap;rounded=0;" vertex="1" parent="1">
          <mxGeometry x="495" y="850" width="210" height="30" as="geometry" />
        </mxCell>
        <mxCell id="aMmDziVB-nuVyi003y2U-80" style="edgeStyle=orthogonalEdgeStyle;rounded=0;orthogonalLoop=1;jettySize=auto;html=1;exitX=0.5;exitY=1;exitDx=0;exitDy=0;entryX=0.5;entryY=0;entryDx=0;entryDy=0;" edge="1" parent="1" source="aMmDziVB-nuVyi003y2U-74" target="aMmDziVB-nuVyi003y2U-79">
          <mxGeometry relative="1" as="geometry" />
        </mxCell>
        <mxCell id="aMmDziVB-nuVyi003y2U-81" value="YES" style="edgeLabel;html=1;align=center;verticalAlign=middle;resizable=0;points=[];" vertex="1" connectable="0" parent="aMmDziVB-nuVyi003y2U-80">
          <mxGeometry x="-0.2286" y="-4" relative="1" as="geometry">
            <mxPoint as="offset" />
          </mxGeometry>
        </mxCell>
        <mxCell id="aMmDziVB-nuVyi003y2U-83" style="edgeStyle=orthogonalEdgeStyle;rounded=0;orthogonalLoop=1;jettySize=auto;html=1;exitX=1;exitY=0.5;exitDx=0;exitDy=0;entryX=0.5;entryY=1;entryDx=0;entryDy=0;" edge="1" parent="1" source="aMmDziVB-nuVyi003y2U-74" target="aMmDziVB-nuVyi003y2U-7">
          <mxGeometry relative="1" as="geometry" />
        </mxCell>
        <mxCell id="aMmDziVB-nuVyi003y2U-84" value="NO" style="edgeLabel;html=1;align=center;verticalAlign=middle;resizable=0;points=[];" vertex="1" connectable="0" parent="aMmDziVB-nuVyi003y2U-83">
          <mxGeometry x="-0.8677" relative="1" as="geometry">
            <mxPoint y="1" as="offset" />
          </mxGeometry>
        </mxCell>
        <mxCell id="aMmDziVB-nuVyi003y2U-74" value="&lt;div&gt;Does password file&amp;nbsp;&lt;/div&gt;&lt;div&gt;exist?&lt;/div&gt;" style="rhombus;whiteSpace=wrap;html=1;" vertex="1" parent="1">
          <mxGeometry x="300.5" y="545" width="150" height="85" as="geometry" />
        </mxCell>
        <mxCell id="aMmDziVB-nuVyi003y2U-90" style="edgeStyle=orthogonalEdgeStyle;rounded=0;orthogonalLoop=1;jettySize=auto;html=1;exitX=1;exitY=0.5;exitDx=0;exitDy=0;entryX=0;entryY=0.5;entryDx=0;entryDy=0;" edge="1" parent="1" source="aMmDziVB-nuVyi003y2U-79" target="aMmDziVB-nuVyi003y2U-88">
          <mxGeometry relative="1" as="geometry" />
        </mxCell>
        <mxCell id="aMmDziVB-nuVyi003y2U-79" value="Get hashes + ECredentials" style="rounded=1;whiteSpace=wrap;html=1;fillColor=#d5e8d4;strokeColor=#82b366;" vertex="1" parent="1">
          <mxGeometry x="315.5" y="700" width="120" height="60" as="geometry" />
        </mxCell>
        <mxCell id="aMmDziVB-nuVyi003y2U-92" style="edgeStyle=orthogonalEdgeStyle;rounded=0;orthogonalLoop=1;jettySize=auto;html=1;exitX=1;exitY=0.5;exitDx=0;exitDy=0;entryX=0;entryY=0.5;entryDx=0;entryDy=0;" edge="1" parent="1" source="aMmDziVB-nuVyi003y2U-88" target="aMmDziVB-nuVyi003y2U-89">
          <mxGeometry relative="1" as="geometry" />
        </mxCell>
        <mxCell id="aMmDziVB-nuVyi003y2U-88" value="Decrypt ECredential using MP" style="rounded=1;whiteSpace=wrap;html=1;fillColor=#dae8fc;strokeColor=#6c8ebf;" vertex="1" parent="1">
          <mxGeometry x="470" y="700" width="120" height="60" as="geometry" />
        </mxCell>
        <mxCell id="aMmDziVB-nuVyi003y2U-94" value="" style="edgeStyle=orthogonalEdgeStyle;rounded=0;orthogonalLoop=1;jettySize=auto;html=1;" edge="1" parent="1" source="aMmDziVB-nuVyi003y2U-89" target="aMmDziVB-nuVyi003y2U-93">
          <mxGeometry relative="1" as="geometry" />
        </mxCell>
        <mxCell id="aMmDziVB-nuVyi003y2U-89" value="Encrypt Credential with PRK" style="rounded=1;whiteSpace=wrap;html=1;fillColor=#dae8fc;strokeColor=#6c8ebf;" vertex="1" parent="1">
          <mxGeometry x="630" y="700" width="120" height="60" as="geometry" />
        </mxCell>
        <mxCell id="aMmDziVB-nuVyi003y2U-93" value="Store encrypted credential in map using hash" style="rounded=1;whiteSpace=wrap;html=1;fillColor=#d5e8d4;strokeColor=#82b366;" vertex="1" parent="1">
          <mxGeometry x="780" y="700" width="120" height="60" as="geometry" />
        </mxCell>
        <mxCell id="aMmDziVB-nuVyi003y2U-95" value="" style="rounded=0;whiteSpace=wrap;html=1;dashed=1;" vertex="1" parent="1">
          <mxGeometry x="950" y="530" width="670" height="360" as="geometry" />
        </mxCell>
        <mxCell id="aMmDziVB-nuVyi003y2U-96" value="&lt;h2&gt;Note&lt;/h2&gt;&lt;p&gt;Do we decrypt all credentials stored at the start?&lt;/p&gt;&lt;p&gt;Or wait until they are requested and decrypt them on demand?&lt;br&gt;&lt;/p&gt;" style="text;html=1;whiteSpace=wrap;overflow=hidden;rounded=0;" vertex="1" parent="1">
          <mxGeometry x="970" y="640" width="180" height="140" as="geometry" />
        </mxCell>
        <mxCell id="aMmDziVB-nuVyi003y2U-97" value="Destory MP and complete PRK" style="rounded=1;whiteSpace=wrap;html=1;fillColor=#f8cecc;strokeColor=#b85450;" vertex="1" parent="1">
          <mxGeometry x="610" y="440" width="120" height="60" as="geometry" />
        </mxCell>
      </root>
    </mxGraphModel>
  </diagram>
</mxfile>
